<?xml version="1.0" encoding="utf-8"?>
<!-- Generator: Adobe Illustrator 23.0.1, SVG Export Plug-In . SVG Version: 6.00 Build 0)  -->
<svg version="1.1" id="Layer_1" xmlns="http://www.w3.org/2000/svg" xmlns:xlink="http://www.w3.org/1999/xlink" x="0px" y="0px"
	 viewBox="0 0 1500 394" style="enable-background:new 0 0 1500 394;" xml:space="preserve">
<style type="text/css">
	.st0{fill:#4BC0B6;}
	.st1{fill:#081B39;}
</style>
<g>
	<path class="st0" d="M403.4,85.6c-16.8-57.4-60.5-81.5-92.9-84.7C304,0.3,297.7,0,291.9,0c-42.5,0-66.8,17.3-87.1,39
		c-20.3-21.7-44.6-39-87.1-39c-5.8,0-12.1,0.3-18.6,0.9C55.8,5.2,6.5,43.4,0.5,117.3c0,0-0.5,6.9-0.5,12.3c0,4.9,0.5,10.6,0.5,10.6
		l0,1.2c6.1,77.9,70.1,158.6,195.8,246.7l8.5,6l8.5-6c26.3-18.5,50.2-36.8,71.1-54.7c6.2-5.3,7-14.7,1.6-20.9
		c-5.3-6.2-14.6-6.9-20.9-1.6c-17.9,15.3-38.2,31.1-60.4,47C94.3,278.7,35.5,205.3,30.1,139.6c0,0-0.4-6.8-0.4-10.1
		c0-3.3,0.4-10.4,0.4-10.4c4.8-56.5,40.6-85.6,72-88.7c5.5-0.5,10.8-0.8,15.7-0.8c35.1,0,51.7,12.7,75.7,41.3l11.3,13.5l11.3-13.5
		c24-28.6,40.6-41.3,75.7-41.3c4.9,0,10.2,0.3,15.7,0.8c25,2.4,55.6,23,67.4,63.5c2.3,7.9,10.5,12.4,18.4,10.1
		C401.2,101.7,405.7,93.5,403.4,85.6"/>
	<path class="st0" d="M452.4,191.9v69.7c0,4.1-3.3,7.5-7.4,7.5h-55.8v55.8c0,4.1-3.3,7.4-7.4,7.4H312c-4.1,0-7.4-3.3-7.4-7.4V269
		h-55.8c-4.1,0-7.4-3.3-7.4-7.5v-69.7c0-4.1,3.3-7.4,7.4-7.4h55.8v-55.8c0-4.1,3.3-7.4,7.4-7.4h69.7c4.1,0,7.4,3.3,7.4,7.4v55.8H445
		C449.1,184.4,452.4,187.8,452.4,191.9 M455.9,131.5h-12.3v-12.3c0-0.9-0.7-1.6-1.7-1.6h-15.4c-0.9,0-1.6,0.7-1.6,1.6v12.3h-12.4
		c-0.9,0-1.6,0.7-1.6,1.6v15.4c0,0.9,0.7,1.6,1.6,1.6h12.4v12.3c0,0.9,0.7,1.6,1.6,1.6H442c0.9,0,1.7-0.7,1.7-1.6v-12.3h12.3
		c0.9,0,1.6-0.7,1.6-1.6v-15.4C457.6,132.2,456.8,131.5,455.9,131.5 M329.2,71.1h-8v-8c0-0.6-0.5-1.1-1.1-1.1h-10
		c-0.6,0-1.1,0.5-1.1,1.1v8h-8c-0.6,0-1.1,0.5-1.1,1.1v10c0,0.6,0.5,1.1,1.1,1.1h8v8c0,0.6,0.5,1.1,1.1,1.1h10
		c0.6,0,1.1-0.5,1.1-1.1v-8h8c0.6,0,1.1-0.5,1.1-1.1v-10C330.2,71.5,329.7,71.1,329.2,71.1 M461.7,51.4h-13.9V37.5
		c0-1-0.8-1.9-1.9-1.9h-17.4c-1,0-1.9,0.8-1.9,1.9v13.9h-13.9c-1,0-1.8,0.8-1.8,1.9v17.4c0,1,0.8,1.8,1.8,1.8h13.9v13.9
		c0,1,0.8,1.9,1.9,1.9h17.4c1,0,1.9-0.8,1.9-1.9V72.5h13.9c1,0,1.8-0.8,1.8-1.8V53.3C463.5,52.3,462.7,51.4,461.7,51.4"/>
</g>
<image style="display:none;overflow:visible;" width="1500" height="393" xlink:href="Docpro-Light.png"  transform="matrix(1 0 0 1 -29.5 0.5075)">
</image>
<g>
	<path class="st1" d="M534.4,195.3c0-10,1.7-19.4,5-28.3c3.3-8.8,8.2-16.5,14.4-23.1c6.3-6.6,13.9-11.8,22.8-15.7
		c8.9-3.9,19-5.8,30.3-5.8c8.3,0,15.6,1.1,22.1,3.4c6.5,2.3,12.2,5.2,17.2,8.8V77.8h40.6v185.8h-34.7l-2-11.2
		c-5.1,4.4-11.2,8.1-18.4,11.2c-7.2,3.1-15.2,4.6-24.1,4.6c-11.2,0-21.3-1.9-30.3-5.7c-9.1-3.8-16.8-9.1-23.1-15.7
		c-6.4-6.6-11.3-14.4-14.7-23.2S534.4,205.3,534.4,195.3z M575.3,195.1c0,5.7,0.9,10.9,2.8,15.6c1.9,4.7,4.5,8.7,7.8,12
		c3.3,3.3,7.2,5.9,11.6,7.7c4.4,1.8,9.2,2.7,14.2,2.7s9.7-0.9,14.2-2.7c4.4-1.8,8.3-4.4,11.6-7.6s5.9-7.3,7.8-12
		c1.9-4.7,2.8-9.9,2.8-15.6c0-5.6-0.9-10.7-2.8-15.4c-1.9-4.6-4.5-8.6-7.8-11.9s-7.2-5.8-11.6-7.6c-4.4-1.8-9.2-2.7-14.3-2.7
		c-5.1,0-9.9,0.9-14.3,2.7c-4.4,1.8-8.3,4.4-11.5,7.6c-3.3,3.3-5.8,7.3-7.6,11.9S575.3,189.5,575.3,195.1z"/>
	<path class="st1" d="M715,195.3c0-10,1.8-19.4,5.5-28.3s8.9-16.5,15.6-23.1s14.7-11.8,24.1-15.6c9.3-3.8,19.6-5.7,30.8-5.7
		c11.2,0,21.6,1.9,30.9,5.7c9.4,3.8,17.4,9,24.1,15.6c6.7,6.6,12,14.3,15.7,23.1c3.7,8.8,5.6,18.3,5.6,28.3c0,10-1.9,19.4-5.6,28.3
		c-3.7,8.8-9,16.5-15.7,23.1c-6.7,6.6-14.8,11.8-24.2,15.6c-9.4,3.8-19.8,5.7-31.1,5.7c-11.1,0-21.3-1.9-30.6-5.7
		c-9.3-3.8-17.3-9-24-15.6c-6.7-6.5-11.9-14.2-15.6-23.1C716.9,214.7,715,205.3,715,195.3z M755.8,195.1c0,5.7,0.9,10.9,2.8,15.5
		s4.4,8.6,7.6,11.9c3.3,3.3,7,5.9,11.3,7.7c4.3,1.8,8.9,2.7,13.8,2.7c5,0,9.7-0.9,14-2.7c4.3-1.8,8-4.4,11.2-7.6s5.7-7.3,7.5-11.9
		c1.8-4.7,2.8-9.8,2.8-15.6c0-5.6-0.9-10.7-2.8-15.4s-4.4-8.6-7.6-11.9c-3.2-3.3-7-5.8-11.3-7.6c-4.3-1.8-9-2.7-14-2.7
		c-4.9,0-9.5,0.9-13.8,2.7c-4.3,1.8-8.1,4.4-11.3,7.6c-3.2,3.3-5.7,7.3-7.6,11.9S755.8,189.5,755.8,195.1z"/>
	<path class="st1" d="M927.9,195.1c0,5.9,1,11.2,2.9,15.8c1.9,4.7,4.5,8.6,7.7,11.8c3.2,3.2,7,5.7,11.3,7.4
		c4.3,1.7,8.8,2.6,13.6,2.6c7,0,13.3-1.7,18.9-5.2c5.6-3.5,9.9-8.3,12.9-14.6h41.5c-1.8,7.8-4.9,15.1-9.2,21.8
		c-4.3,6.7-9.6,12.5-15.9,17.5c-6.3,4.9-13.6,8.8-21.8,11.5c-8.2,2.8-17.1,4.2-26.7,4.2c-11.2,0-21.4-1.9-30.7-5.7
		c-9.3-3.8-17.3-9-24-15.6c-6.7-6.6-11.9-14.3-15.6-23.1c-3.7-8.8-5.6-18.2-5.6-28.1c0-9.9,1.8-19.3,5.5-28.1s8.9-16.6,15.6-23.2
		c6.7-6.6,14.7-11.9,24-15.8c9.3-3.9,19.5-5.8,30.8-5.8c9.6,0,18.5,1.4,26.6,4.2c8.2,2.8,15.4,6.6,21.7,11.5
		c6.3,4.9,11.6,10.7,15.9,17.4c4.3,6.7,7.4,14,9.4,22l-41.5,0.1c-3-6.3-7.3-11.2-12.9-14.7c-5.6-3.5-11.9-5.2-18.9-5.2
		c-4.7,0-9.3,0.9-13.6,2.6c-4.3,1.7-8.1,4.2-11.3,7.4c-3.3,3.3-5.8,7.2-7.7,11.8C928.9,184,927.9,189.2,927.9,195.1z"/>
	<path class="st1" d="M1213.6,195.1c0,10-1.7,19.4-5,28.3c-3.3,8.8-8.1,16.5-14.4,23.1c-6.2,6.6-13.8,11.8-22.8,15.6
		s-19.1,5.7-30.3,5.7c-8.3,0-15.6-1.1-22.1-3.4c-6.5-2.2-12.2-5.2-17.1-8.8v54.4h-40.7V126.8h32.8l2.6,11.6c2.5-2.1,5.4-4.1,8.5-6.1
		c3.1-1.9,6.5-3.6,10.2-5.1c3.7-1.5,7.6-2.6,11.8-3.5c4.2-0.9,8.6-1.3,13.3-1.3c11.2,0,21.2,1.9,30.3,5.7c9,3.8,16.7,9,23.1,15.6
		c6.4,6.5,11.3,14.2,14.7,23.1S1213.6,185.1,1213.6,195.1z M1172.8,195.3c0-5.7-0.9-10.9-2.8-15.6c-1.9-4.7-4.5-8.7-7.8-12
		c-3.3-3.3-7.2-5.9-11.6-7.7c-4.4-1.8-9.2-2.7-14.2-2.7c-5.1,0-9.8,0.9-14.2,2.7c-4.4,1.8-8.2,4.4-11.5,7.6c-3.3,3.3-5.9,7.3-7.8,12
		c-1.9,4.7-2.8,9.9-2.8,15.6c0,5.6,1,10.7,2.9,15.4c1.9,4.6,4.5,8.6,7.8,11.9c3.3,3.3,7.2,5.8,11.6,7.6c4.4,1.8,9.2,2.7,14.2,2.7
		c5.1,0,9.9-0.9,14.3-2.7c4.4-1.8,8.3-4.3,11.5-7.6c3.3-3.3,5.8-7.2,7.6-11.8S1172.8,201,1172.8,195.3z"/>
	<path class="st1" d="M1333.1,162.3l-17.1,0.1c-11.3,0-20,3.1-26.3,9.4c-6.3,6.2-9.4,15.6-9.4,28.2v63.5h-40.6V126.8h32.7l3.2,12.9
		c4.4-3.7,9.7-6.8,16-9.2c6.3-2.5,13.7-3.7,22.2-3.7h19.4V162.3z"/>
	<path class="st1" d="M1347.6,195.3c0-10,1.8-19.4,5.5-28.3s8.9-16.5,15.6-23.1c6.7-6.6,14.7-11.8,24.1-15.6
		c9.3-3.8,19.6-5.7,30.8-5.7c11.2,0,21.6,1.9,30.9,5.7c9.4,3.8,17.4,9,24.1,15.6c6.7,6.6,12,14.3,15.7,23.1
		c3.7,8.8,5.6,18.3,5.6,28.3c0,10-1.9,19.4-5.6,28.3c-3.7,8.8-9,16.5-15.7,23.1c-6.7,6.6-14.8,11.8-24.2,15.6
		c-9.4,3.8-19.8,5.7-31.1,5.7c-11.1,0-21.3-1.9-30.6-5.7c-9.3-3.8-17.3-9-24-15.6c-6.7-6.5-11.9-14.2-15.6-23.1
		C1349.4,214.7,1347.6,205.3,1347.6,195.3z M1388.3,195.1c0,5.7,0.9,10.9,2.8,15.5s4.4,8.6,7.6,11.9c3.3,3.3,7,5.9,11.3,7.7
		c4.3,1.8,8.9,2.7,13.8,2.7c5,0,9.7-0.9,14-2.7c4.3-1.8,8-4.4,11.2-7.6s5.7-7.3,7.5-11.9c1.8-4.7,2.8-9.8,2.8-15.6
		c0-5.6-0.9-10.7-2.8-15.4s-4.4-8.6-7.6-11.9c-3.2-3.3-7-5.8-11.3-7.6c-4.3-1.8-9-2.7-14-2.7c-4.9,0-9.5,0.9-13.8,2.7
		c-4.3,1.8-8.1,4.4-11.3,7.6c-3.2,3.3-5.7,7.3-7.6,11.9S1388.3,189.5,1388.3,195.1z"/>
</g>
</svg>
